<svg width="450" height="163" viewBox="0 0 450 163" fill="none" xmlns="http://www.w3.org/2000/svg">
<path d="M391.026 29.5769V0.0220698H308.823L295.305 98.7588L281.927 0.0225493H252.284L255.605 26.3687C252.181 19.6194 240.044 0.0225493 213.335 0.0225493C213.159 0.011035 183.651 0.0225493 183.651 0.0225493L183.537 143.939L161.931 0.0225493L123.108 0L100.755 149.117L100.767 0.0215903H63.6105L50.2155 83.781L37.1682 0.0225493H0V162.137H29.2692V83.9984L42.5832 162.135H58.1438L71.2707 83.9984V162.135H127.697L131.121 137.19H153.838L157.251 162.135L212.648 162.17H212.693V162.135H212.727H212.762V109.513L219.553 108.523L233.613 162.17H233.647H262.233H262.266L262.255 162.135H262.306H262.34L243.89 99.2591C253.24 92.34 263.797 74.7687 260.987 57.9592V57.9482C261.021 58.1756 278.402 162.239 278.402 162.239L312.481 162.135L335.767 15.1917V162.136H391.027V132.979H364.796V95.7996H391.027V66.1992H364.796V29.5769H391.026ZM134.569 111.483L142.605 42.1755L150.949 111.483H134.569ZM219.648 79.4804C217.396 80.5733 215.047 81.1198 212.76 81.1198V28.9739C212.8 28.9739 212.846 28.9633 212.903 28.9633C215.195 28.9518 232.285 29.657 232.285 54.7621C232.285 67.8946 226.473 76.1691 219.648 79.4804ZM450 132.957V162.113H396.093V0H425.118V132.957H450Z" fill="white"/>
</svg>
